<?xml version="1.0" encoding="UTF-8" standalone="no"?><!DOCTYPE svg PUBLIC "-//W3C//DTD SVG 1.1//EN" "http://www.w3.org/Graphics/SVG/1.1/DTD/svg11.dtd"><svg width="100%" height="100%" viewBox="0 0 1178 1178" version="1.1" xmlns="http://www.w3.org/2000/svg" xmlns:xlink="http://www.w3.org/1999/xlink" xml:space="preserve" xmlns:serif="http://www.serif.com/" style="fill-rule:evenodd;clip-rule:evenodd;stroke-linecap:round;stroke-linejoin:round;stroke-miterlimit:1.5;"><g><g><path d="M1172.12,55.485c0,-27.748 -22.528,-50.277 -50.277,-50.277l-1066.36,0c-27.748,0 -50.277,22.529 -50.277,50.277l0,1066.34c0,27.748 22.529,50.277 50.277,50.277l1066.36,-0c27.749,-0 50.277,-22.529 50.277,-50.277l0,-1066.34Z" style="fill:none;stroke:#eee3d3;stroke-width:10.42px;"/></g><g><path d="M988.131,999.828c0,-2.823 -1.794,-6.057 -5.381,-9.703c-3.587,-3.646 -8.439,-7.351 -14.555,-11.115c-6.116,-3.764 -13.055,-7.233 -20.818,-10.409c-7.763,-3.176 -15.819,-5.704 -24.17,-7.586l19.054,2.999c18.818,6.704 32.109,13.438 39.872,20.2c7.762,6.763 11.644,13.673 11.644,20.73c-0,5.528 -2,9.674 -5.999,12.438c-3.999,2.764 -9.115,4.146 -15.349,4.146c-5.645,0 -11.791,-0.941 -18.436,-2.823c-6.645,-1.881 -13.261,-4.498 -19.848,-7.85c-6.586,-3.353 -12.585,-7.204 -17.995,-11.556c-5.41,-4.352 -9.762,-9.086 -13.055,-14.202c-3.294,-5.117 -4.94,-10.321 -4.94,-15.614c-0,-4.116 2.029,-7.263 6.086,-9.439c4.058,-2.175 9.733,-2.617 17.025,-1.323l1.059,1.941c-6.234,-0.823 -11.262,-0.412 -15.084,1.235c-3.823,1.646 -5.734,4.352 -5.734,8.115c-0,3.882 2.293,7.91 6.88,12.085c4.587,4.176 10.556,8.086 17.907,11.733c7.351,3.646 15.29,6.586 23.818,8.821c8.527,2.234 16.672,3.352 24.434,3.352c5.058,-0 8.586,-0.559 10.586,-1.676c1.999,-1.118 2.999,-2.617 2.999,-4.499Zm-87.506,-44.459c-0.118,-2.823 -0.353,-5.645 -0.706,-8.468c-0.353,-2.823 -0.941,-5.411 -1.764,-7.763l77.979,22.053c1.059,0.235 2.441,0.559 4.146,0.97c1.706,0.412 3.264,0.412 4.675,0c1.412,-0.411 2.117,-1.617 2.117,-3.616c0,-2.353 -1.293,-4.646 -3.881,-6.881c-2.587,-2.234 -7.292,-4.469 -14.114,-6.704l-6.527,-2.117l-0,-3.352l12.878,4.411c7.057,2.587 11.88,5.763 14.467,9.527c2.588,3.763 3.882,7.351 3.882,10.761c-0,4.587 -1.529,7.822 -4.587,9.704c-2.706,1.529 -5.852,1.94 -9.439,1.235c-3.587,-0.706 -7.204,-1.529 -10.85,-2.47l-68.276,-17.29Z" style="fill:#66aac3;fill-rule:nonzero;stroke:#66aac3;stroke-width:2.92px;stroke-linecap:butt;stroke-miterlimit:2;"/><path d="M903.8,863.805c0,3.058 2.147,6.498 6.44,10.321c4.293,3.822 10.115,7.704 17.466,11.644c7.351,3.94 15.613,7.645 24.787,11.115c9.174,3.469 18.701,6.38 28.581,8.733l-19.054,-3.176c-23.052,-7.645 -39.46,-14.908 -49.222,-21.788c-9.762,-6.881 -14.643,-14.203 -14.643,-21.965c-0,-5.528 2.058,-9.968 6.175,-13.32c4.116,-3.352 10.35,-5.028 18.701,-5.028c5.292,-0 11.114,0.735 17.466,2.205c6.351,1.47 12.643,3.646 18.877,6.528c6.234,2.881 11.967,6.41 17.201,10.585c5.234,4.176 9.41,8.968 12.526,14.379c3.117,5.41 4.676,11.408 4.676,17.995c-0,3.528 -1.059,6.675 -3.176,9.439c-2.117,2.764 -5.175,4.616 -9.174,5.557l-3.529,-1.411c4.352,-1.647 7.41,-3.558 9.174,-5.734c1.765,-2.176 2.647,-4.734 2.647,-7.675c-0,-3.999 -1.559,-7.821 -4.675,-11.467c-3.117,-3.646 -7.263,-6.998 -12.438,-10.056c-5.175,-3.058 -10.909,-5.734 -17.202,-8.028c-6.292,-2.293 -12.585,-4.057 -18.877,-5.292c-6.292,-1.235 -12.085,-1.853 -17.378,-1.853c-5.175,0 -9.027,0.735 -11.556,2.206c-2.528,1.47 -3.793,3.499 -3.793,6.086Zm-30.168,26.464c-0.118,-2.823 -0.353,-5.616 -0.706,-8.38c-0.353,-2.764 -0.941,-5.323 -1.764,-7.675l135.67,38.813c4.94,1.412 8.292,0.706 10.056,-2.117c1.764,-2.822 2.646,-6.88 2.646,-12.173l3.705,1.059c-0.117,2.352 -0.264,5.675 -0.441,9.968c-0.176,4.293 -0.264,8.85 -0.264,13.672c-0,3.647 0.088,7.351 0.264,11.115c0.177,3.764 0.324,6.587 0.441,8.468l-3.705,-1.058c0,-4.234 -0.793,-7.292 -2.381,-9.174c-1.588,-1.882 -4.44,-3.411 -8.557,-4.587l-134.964,-37.931Zm54.691,36.696c-4.469,-4.587 -8.909,-8.88 -13.32,-12.879c-4.41,-3.999 -9.674,-7.88 -15.79,-11.644c-6.116,-3.764 -13.82,-7.586 -23.111,-11.468l2.823,-0.529c11.996,3.999 21.876,8.939 29.639,14.82c7.762,5.881 15.113,12.467 22.053,19.759l-2.294,1.941Z" style="fill:#66aac3;fill-rule:nonzero;stroke:#66aac3;stroke-width:2.92px;stroke-linecap:butt;stroke-miterlimit:2;"/><path d="M988.131,810.349c0,-2.823 -1.794,-6.058 -5.381,-9.704c-3.587,-3.646 -8.439,-7.351 -14.555,-11.114c-6.116,-3.764 -13.055,-7.234 -20.818,-10.409c-7.763,-3.176 -15.819,-5.705 -24.17,-7.587l19.054,3c18.818,6.704 32.109,13.437 39.872,20.2c7.762,6.763 11.644,13.673 11.644,20.73c-0,5.528 -2,9.674 -5.999,12.438c-3.999,2.764 -9.115,4.146 -15.349,4.146c-5.645,-0 -11.791,-0.941 -18.436,-2.823c-6.645,-1.882 -13.261,-4.499 -19.848,-7.851c-6.586,-3.352 -12.585,-7.204 -17.995,-11.556c-5.41,-4.351 -9.762,-9.085 -13.055,-14.202c-3.294,-5.116 -4.94,-10.321 -4.94,-15.613c-0,-4.117 2.029,-7.263 6.086,-9.439c4.058,-2.176 9.733,-2.617 17.025,-1.323l1.059,1.941c-6.234,-0.824 -11.262,-0.412 -15.084,1.235c-3.823,1.646 -5.734,4.351 -5.734,8.115c-0,3.881 2.293,7.91 6.88,12.085c4.587,4.175 10.556,8.086 17.907,11.732c7.351,3.646 15.29,6.587 23.818,8.821c8.527,2.235 16.672,3.353 24.434,3.353c5.058,-0 8.586,-0.559 10.586,-1.677c1.999,-1.117 2.999,-2.616 2.999,-4.498Zm-87.506,-44.459c-0.118,-2.823 -0.353,-5.646 -0.706,-8.469c-0.353,-2.822 -0.941,-5.41 -1.764,-7.762l77.979,22.053c1.059,0.235 2.441,0.559 4.146,0.97c1.706,0.412 3.264,0.412 4.675,0c1.412,-0.411 2.117,-1.617 2.117,-3.617c0,-2.352 -1.293,-4.645 -3.881,-6.88c-2.587,-2.235 -7.292,-4.469 -14.114,-6.704l-6.527,-2.117l-0,-3.352l12.878,4.41c7.057,2.588 11.88,5.763 14.467,9.527c2.588,3.764 3.882,7.351 3.882,10.762c-0,4.587 -1.529,7.821 -4.587,9.703c-2.706,1.529 -5.852,1.941 -9.439,1.235c-3.587,-0.705 -7.204,-1.529 -10.85,-2.47l-68.276,-17.289Z" style="fill:#66aac3;fill-rule:nonzero;stroke:#66aac3;stroke-width:2.92px;stroke-linecap:butt;stroke-miterlimit:2;"/><path d="M991.307,720.02l-0,15.348l-75.686,-21.17c-3.999,-1.177 -6.822,-1.559 -8.469,-1.147c-1.646,0.412 -2.47,1.617 -2.47,3.617c0,2.587 1.353,4.939 4.058,7.057c2.705,2.117 7.351,4.351 13.938,6.704l6.527,2.293l0,3.352l-12.879,-4.41c-7.409,-2.588 -12.29,-5.881 -14.643,-9.88c-2.352,-3.999 -3.528,-7.822 -3.528,-11.468c-0,-4.704 1.323,-7.674 3.969,-8.909c2.647,-1.235 5.852,-1.559 9.615,-0.97c3.764,0.588 7.469,1.352 11.115,2.293l68.453,17.29Zm-88.742,-45.341c0,2.705 1.265,5.498 3.794,8.38c2.528,2.881 6.174,5.822 10.938,8.821c4.763,2.999 10.468,5.998 17.113,8.998c6.645,2.999 14.026,5.939 22.141,8.821c8.116,2.881 16.878,5.675 26.287,8.38l-22.582,-4.411c-11.526,-3.881 -21.23,-7.498 -29.11,-10.85c-7.88,-3.352 -14.261,-6.674 -19.142,-9.968c-4.881,-3.293 -8.409,-6.674 -10.585,-10.144c-2.176,-3.47 -3.264,-7.145 -3.264,-11.027c-0,-3.293 0.941,-5.851 2.823,-7.674c1.881,-1.823 4.293,-2.735 7.233,-2.735c3.528,0 6.528,1.235 8.998,3.705c2.47,2.47 3.704,5.352 3.704,8.645c0,2 -0.558,3.676 -1.676,5.028c-1.117,1.353 -2.675,2.029 -4.675,2.029c-2.823,0 -5.175,-0.764 -7.057,-2.293c-1.882,-1.529 -3.293,-3.411 -4.234,-5.646c-0.235,0.235 -0.412,0.5 -0.529,0.794c-0.118,0.294 -0.177,0.676 -0.177,1.147Z" style="fill:#66aac3;fill-rule:nonzero;stroke:#66aac3;stroke-width:2.92px;stroke-linecap:butt;stroke-miterlimit:2;"/><path d="M900.625,600.051l3.528,0.53l0,54.867l-3.528,-0.882l-0,-54.515Zm75.686,44.812c3.881,1.059 6.674,0.794 8.38,-0.794c1.705,-1.588 2.558,-3.675 2.558,-6.263c-0,-2.588 -1.117,-5.204 -3.352,-7.851c-2.235,-2.646 -6.998,-5.263 -14.291,-7.851l-6.88,-2.47l-0,-3.352l11.115,3.705c7.645,2.588 12.879,5.91 15.701,9.968c2.823,4.058 4.235,8.792 4.235,14.202c-0,7.175 -2.294,11.85 -6.881,14.026c-4.587,2.176 -10.527,2.205 -17.819,0.088l-95.269,-27.345c-0.117,-2.823 -0.353,-5.617 -0.705,-8.381c-0.353,-2.764 -0.941,-5.263 -1.765,-7.498l104.973,29.816Z" style="fill:#66aac3;fill-rule:nonzero;stroke:#66aac3;stroke-width:2.92px;stroke-linecap:butt;stroke-miterlimit:2;"/><path d="M991.307,585.585l-0,15.348l-75.686,-21.17c-1.059,-0.353 -2.441,-0.677 -4.146,-0.971c-1.706,-0.294 -3.264,-0.264 -4.675,0.088c-1.412,0.353 -2.118,1.471 -2.118,3.352c0,2.588 1.353,4.94 4.058,7.057c2.705,2.118 7.351,4.352 13.938,6.705l6.527,2.293l0,3.352l-12.879,-4.41c-7.409,-2.588 -12.29,-5.881 -14.643,-9.88c-2.352,-3.999 -3.528,-7.822 -3.528,-11.468c-0,-4.704 1.352,-7.704 4.058,-8.997c2.705,-1.294 5.969,-1.647 9.791,-1.059c3.823,0.588 7.439,1.411 10.85,2.47l68.453,17.29Zm-72.687,-49.928c-3.646,-1.177 -7.028,-1.765 -10.144,-1.765c-3.117,0 -4.676,1.647 -4.676,4.94c0,3.293 2.029,6.91 6.087,10.85c4.058,3.94 9.703,7.939 16.937,11.997c7.233,4.058 15.643,7.969 25.228,11.732c9.586,3.764 19.848,7.116 30.786,10.056l-28.228,-5.822c-14.113,-5.41 -25.287,-10.467 -33.52,-15.172c-8.233,-4.705 -14.114,-9.439 -17.642,-14.202c-3.529,-4.764 -5.293,-9.85 -5.293,-15.261c-0,-5.057 1.441,-8.351 4.322,-9.88c2.882,-1.529 6.381,-2.058 10.497,-1.587c4.117,0.47 8.057,1.235 11.821,2.293l66.512,17.995l-0,15.879l-72.687,-22.053Zm-0,-44.106c-3.646,-1.177 -7.028,-1.765 -10.144,-1.765c-3.117,0 -4.676,1.294 -4.676,3.882c0,4.587 3.617,9.585 10.85,14.996c7.234,5.41 17.172,10.85 29.816,16.319c12.644,5.469 27.081,10.732 43.312,15.79l-22.582,-4.058c-12.232,-4.587 -22.612,-8.821 -31.139,-12.702c-8.527,-3.882 -15.437,-7.704 -20.73,-11.468c-5.292,-3.764 -9.144,-7.645 -11.556,-11.644c-2.411,-3.999 -3.616,-8.351 -3.616,-13.055c-0,-4.94 1.411,-8.292 4.234,-10.056c2.823,-1.765 6.263,-2.5 10.321,-2.206c4.058,0.294 8.086,1.088 12.085,2.382l51.516,17.113c3.646,1.176 6.38,1.588 8.203,1.235c1.823,-0.353 2.735,-1.705 2.735,-4.058c-0,-2.234 -1.235,-4.44 -3.705,-6.616c-2.47,-2.176 -7.233,-4.498 -14.29,-6.968l-6.528,-2.294l-0,-3.352l12.879,4.411c7.41,2.587 12.291,5.88 14.643,9.879c2.352,3.999 3.529,7.822 3.529,11.468c-0,2.94 -0.441,5.263 -1.324,6.969c-0.882,1.705 -2.028,3.028 -3.44,3.969c-2.235,1.412 -5.028,1.882 -8.38,1.412c-3.352,-0.471 -7.204,-1.412 -11.556,-2.823l-50.457,-16.76Z" style="fill:#66aac3;fill-rule:nonzero;stroke:#66aac3;stroke-width:2.92px;stroke-linecap:butt;stroke-miterlimit:2;"/><path d="M951.258,449.385c-2.234,-6.586 -4.44,-12.555 -6.615,-17.907c-2.176,-5.351 -4.499,-9.615 -6.969,-12.791c-3.411,-4.234 -7.528,-7.586 -12.35,-10.056c-4.822,-2.47 -10.115,-3.705 -15.878,-3.705c-3.411,0 -5.587,0.236 -6.528,0.706c-0.941,0.471 -1.411,1.176 -1.411,2.117c-0,3.646 1.97,7.645 5.91,11.997c3.94,4.352 9.233,8.468 15.878,12.35c6.646,3.881 13.967,7.086 21.965,9.615c7.998,2.529 16.055,3.793 24.17,3.793c5.998,-0 10.321,-1.117 12.967,-3.352c2.647,-2.235 3.97,-5.175 3.97,-8.821c-0,-4.235 -1.294,-8.704 -3.882,-13.409c-2.587,-4.704 -7.174,-9.291 -13.761,-13.761l1.412,-2.822c3.881,2.234 7.645,5.175 11.291,8.821c3.646,3.646 6.616,7.733 8.909,12.261c2.294,4.528 3.441,9.321 3.441,14.379c-0,7.174 -2.088,12.849 -6.263,17.025c-4.176,4.175 -10.38,6.263 -18.613,6.263c-5.058,-0 -10.733,-0.941 -17.025,-2.823c-6.293,-1.882 -12.585,-4.558 -18.877,-8.027c-6.293,-3.47 -12.086,-7.616 -17.378,-12.438c-5.293,-4.822 -9.527,-10.174 -12.703,-16.055c-3.175,-5.881 -4.763,-12.173 -4.763,-18.877c-0,-3.646 0.97,-6.734 2.911,-9.262c1.94,-2.529 4.851,-3.794 8.733,-3.794c4.704,0 9.086,1.382 13.143,4.146c4.058,2.764 7.763,6.411 11.115,10.939c3.352,4.528 6.322,9.438 8.909,14.731c2.588,5.293 4.823,10.468 6.705,15.525c1.881,5.058 3.41,9.527 4.587,13.409l-3,-0.177Z" style="fill:#66aac3;fill-rule:nonzero;stroke:#66aac3;stroke-width:2.92px;stroke-linecap:butt;stroke-miterlimit:2;"/><path d="M991.307,366.995l-0,15.349l-75.686,-21.171c-1.412,-0.47 -2.97,-0.852 -4.675,-1.146c-1.706,-0.295 -3.176,-0.206 -4.411,0.264c-1.235,0.471 -1.853,1.647 -1.853,3.529c0,2.587 1.265,4.881 3.794,6.88c2.528,2 7.262,4.234 14.202,6.704l6.527,2.294l0,3.352l-12.879,-4.411c-7.409,-2.587 -12.29,-5.792 -14.643,-9.615c-2.352,-3.822 -3.528,-7.615 -3.528,-11.379c-0,-4.705 1.294,-7.733 3.881,-9.086c2.588,-1.353 5.763,-1.735 9.527,-1.147c3.764,0.588 7.527,1.353 11.291,2.294l68.453,17.289Zm-36.697,-8.115c-10.585,-4.117 -19.465,-8.116 -26.64,-11.997c-7.174,-3.881 -12.967,-7.704 -17.377,-11.468c-4.411,-3.763 -7.587,-7.615 -9.527,-11.555c-1.941,-3.941 -2.911,-8.028 -2.911,-12.262c-0,-5.528 1.323,-9.321 3.969,-11.379c2.647,-2.058 5.999,-2.97 10.056,-2.735c4.058,0.235 8.263,1.059 12.615,2.47l51.516,17.113c3.175,1.059 5.792,1.5 7.85,1.323c2.059,-0.176 3.088,-1.558 3.088,-4.146c-0,-2.234 -1.235,-4.44 -3.705,-6.615c-2.47,-2.176 -7.233,-4.499 -14.29,-6.969l-6.528,-2.294l-0,-3.352l12.879,4.411c7.41,2.587 12.291,5.881 14.643,9.88c2.352,3.999 3.529,7.821 3.529,11.467c-0,5.293 -1.706,8.998 -5.117,11.115c-2.117,1.294 -4.881,1.705 -8.292,1.235c-3.411,-0.471 -7.174,-1.412 -11.291,-2.823l-50.457,-16.76c-1.647,-0.588 -3.617,-1.088 -5.91,-1.5c-2.294,-0.411 -4.352,-0.323 -6.175,0.265c-1.823,0.588 -2.735,2.293 -2.735,5.116c0,3.529 1.912,7.322 5.734,11.379c3.823,4.058 9.145,8.204 15.967,12.438c6.821,4.235 14.819,8.322 23.993,12.262c9.174,3.94 19.113,7.439 29.816,10.497l-24.7,-5.116Z" style="fill:#66aac3;fill-rule:nonzero;stroke:#66aac3;stroke-width:2.92px;stroke-linecap:butt;stroke-miterlimit:2;"/><path d="M900.625,220.034l3.528,0.529l0,54.868l-3.528,-0.882l-0,-54.515Zm75.686,44.812c3.881,1.058 6.674,0.794 8.38,-0.794c1.705,-1.588 2.558,-3.676 2.558,-6.263c-0,-2.588 -1.117,-5.205 -3.352,-7.851c-2.235,-2.646 -6.998,-5.263 -14.291,-7.851l-6.88,-2.47l-0,-3.352l11.115,3.705c7.645,2.588 12.879,5.91 15.701,9.968c2.823,4.058 4.235,8.792 4.235,14.202c-0,7.175 -2.294,11.85 -6.881,14.026c-4.587,2.176 -10.527,2.205 -17.819,0.088l-95.269,-27.346c-0.117,-2.822 -0.353,-5.616 -0.705,-8.38c-0.353,-2.764 -0.941,-5.263 -1.765,-7.498l104.973,29.816Z" style="fill:#66aac3;fill-rule:nonzero;stroke:#66aac3;stroke-width:2.92px;stroke-linecap:butt;stroke-miterlimit:2;"/><path d="M988.66,216.506c0.471,-0.941 0.853,-1.97 1.147,-3.088c0.294,-1.117 0.441,-2.793 0.441,-5.028c0,-5.175 -1.558,-9.439 -4.675,-12.791c-3.117,-3.352 -7.616,-5.028 -13.497,-5.028c-3.646,0 -7.262,0.677 -10.85,2.029c-3.587,1.353 -7.733,3.734 -12.438,7.145c-3.763,2.706 -7.615,5.293 -11.555,7.763c-3.94,2.47 -8.616,3.705 -14.026,3.705c-7.527,-0 -13.585,-2.676 -18.172,-8.027c-4.587,-5.352 -6.88,-11.791 -6.88,-19.319c-0,-3.411 0.411,-6.763 1.235,-10.056c0.823,-3.293 2.323,-6.028 4.499,-8.204c2.175,-2.176 5.381,-3.264 9.615,-3.264c1.646,0 3.587,0.589 5.822,1.765c2.234,1.176 3.352,3.293 3.352,6.351c-0,1.882 -0.677,3.528 -2.029,4.94c-1.353,1.411 -3.146,2.117 -5.381,2.117c-2.117,-0 -4.146,-0.441 -6.087,-1.323c-1.94,-0.882 -3.852,-2.088 -5.733,-3.617c-1.412,2.235 -2.118,5.175 -2.118,8.821c0,4.352 1.471,7.998 4.411,10.939c2.94,2.94 7.057,4.41 12.35,4.41c3.999,0 7.38,-0.911 10.144,-2.734c2.764,-1.823 6.734,-4.44 11.909,-7.851c4.469,-2.941 8.762,-5.411 12.879,-7.41c4.116,-2 8.468,-2.999 13.055,-2.999c5.41,-0 10.203,1.382 14.379,4.146c4.175,2.764 7.439,6.439 9.791,11.026c2.352,4.587 3.529,9.645 3.529,15.173c-0,3.999 -0.588,7.821 -1.765,11.467c-1.176,3.646 -3.028,6.616 -5.557,8.91c-2.529,2.293 -5.91,3.44 -10.144,3.44c-1.647,-0 -3.382,-0.5 -5.205,-1.5c-1.823,-0.999 -2.734,-2.793 -2.734,-5.381c-0,-2.822 1.146,-4.822 3.44,-5.998c2.293,-1.176 4.851,-1.764 7.674,-1.764c1.882,-0 3.558,0.147 5.028,0.441c1.471,0.294 2.853,0.558 4.146,0.794Z" style="fill:#66aac3;fill-rule:nonzero;stroke:#66aac3;stroke-width:2.92px;stroke-linecap:butt;stroke-miterlimit:2;"/></g><g><path d="M704.662,1007.93c0,16.281 -9.408,20.181 -20.916,8.674l-121.752,-121.7c-11.508,-11.508 -11.508,-30.342 -0,-41.832l121.752,-121.735c11.508,-11.507 20.916,-7.59 20.916,8.674l0,267.919Z" style="fill:#66c3ad;fill-rule:nonzero;stroke:#eee3d3;stroke-width:1px;stroke-linecap:butt;stroke-miterlimit:2;"/><path d="M533.229,195.468c0,-16.282 9.409,-20.181 20.916,-8.674l121.718,121.718c11.507,11.524 11.507,30.359 -0,41.866l-121.701,121.683c-11.507,11.507 -20.915,7.607 -20.915,-8.674l-0.018,-267.919Z" style="fill:#66c3ad;fill-rule:nonzero;stroke:#eee3d3;stroke-width:1px;stroke-linecap:butt;stroke-miterlimit:2;"/><path d="M533.229,559.014c0,-16.282 9.409,-20.181 20.916,-8.674l121.718,121.7c11.507,11.507 11.507,30.342 -0,41.849l-121.701,121.683c-11.507,11.525 -20.915,7.625 -20.915,-8.657l-0.018,-267.901Z" style="fill:#66c3ad;fill-rule:nonzero;stroke:#eee3d3;stroke-width:1px;stroke-linecap:butt;stroke-miterlimit:2;"/><path d="M842.551,154.087c16.282,0 20.182,9.427 8.674,20.934l-121.735,121.717c-11.507,11.49 -30.324,11.49 -41.832,-0.017l-121.7,-121.683c-11.524,-11.507 -7.607,-20.933 8.674,-20.933l267.919,-0.018Z" style="fill:#66c3ad;fill-rule:nonzero;stroke:#eee3d3;stroke-width:1px;stroke-linecap:butt;stroke-miterlimit:2;"/><path d="M842.551,517.625c16.282,-0 20.182,9.426 8.674,20.916l-121.735,121.717c-11.507,11.507 -30.324,11.507 -41.832,0l-121.7,-121.682c-11.524,-11.508 -7.607,-20.934 8.674,-20.934l267.919,-0.017Z" style="fill:#66c3ad;fill-rule:nonzero;stroke:#eee3d3;stroke-width:1px;stroke-linecap:butt;stroke-miterlimit:2;"/><path d="M842.551,501.579c16.282,0 20.182,-9.426 8.674,-20.933l-121.735,-121.718c-11.507,-11.507 -30.324,-11.507 -41.832,0l-121.7,121.7c-11.524,11.508 -7.607,20.934 8.674,20.934l267.919,0.017Z" style="fill:#66c3ad;fill-rule:nonzero;stroke:#eee3d3;stroke-width:1px;stroke-linecap:butt;stroke-miterlimit:2;"/><path d="M307.275,1007.93c-0,16.281 9.426,20.181 20.933,8.674l121.683,-121.683c11.507,-11.525 11.507,-30.359 -0,-41.867l-121.7,-121.7c-11.49,-11.524 -20.916,-7.607 -20.916,8.657l-0,267.919Z" style="fill:#66c3ad;fill-rule:nonzero;stroke:#eee3d3;stroke-width:1px;stroke-linecap:butt;stroke-miterlimit:2;"/><path d="M478.717,195.468c-0,-16.282 -9.426,-20.181 -20.934,-8.674l-121.717,121.718c-11.508,11.524 -11.508,30.359 -0,41.866l121.682,121.683c11.508,11.507 20.934,7.607 20.934,-8.674l0.035,-267.919Z" style="fill:#66c3ad;fill-rule:nonzero;stroke:#eee3d3;stroke-width:1px;stroke-linecap:butt;stroke-miterlimit:2;"/><path d="M478.717,559.014c-0,-16.282 -9.426,-20.181 -20.934,-8.674l-121.717,121.7c-11.508,11.507 -11.508,30.342 -0,41.849l121.682,121.683c11.508,11.525 20.934,7.625 20.934,-8.657l0.035,-267.901Z" style="fill:#66c3ad;fill-rule:nonzero;stroke:#eee3d3;stroke-width:1px;stroke-linecap:butt;stroke-miterlimit:2;"/><path d="M169.377,154.087c-16.281,0 -20.181,9.427 -8.674,20.934l121.683,121.7c11.507,11.507 30.342,11.507 41.849,0.017l121.7,-121.7c11.507,-11.507 7.607,-20.933 -8.674,-20.933l-267.884,-0.018Z" style="fill:#66c3ad;fill-rule:nonzero;stroke:#eee3d3;stroke-width:1px;stroke-linecap:butt;stroke-miterlimit:2;"/><path d="M169.377,517.625c-16.281,-0 -20.181,9.426 -8.674,20.933l121.683,121.7c11.507,11.507 30.342,11.507 41.849,0l121.7,-121.7c11.507,-11.49 7.607,-20.916 -8.674,-20.916l-267.884,-0.017Z" style="fill:#66c3ad;fill-rule:nonzero;stroke:#eee3d3;stroke-width:1px;stroke-linecap:butt;stroke-miterlimit:2;"/><path d="M169.377,501.579c-16.281,0 -20.181,-9.426 -8.674,-20.933l121.683,-121.718c11.507,-11.507 30.342,-11.507 41.849,0l121.7,121.7c11.507,11.508 7.607,20.934 -8.674,20.934l-267.884,0.017Z" style="fill:#66c3ad;fill-rule:nonzero;stroke:#eee3d3;stroke-width:1px;stroke-linecap:butt;stroke-miterlimit:2;"/></g></g></svg>